<?xml version="1.0" encoding="UTF-8"?>
<svg version="1.1" xmlns="http://www.w3.org/2000/svg" width="1338" height="1336">
<path d="M0 0 C441.54 0 883.08 0 1338 0 C1338 440.88 1338 881.76 1338 1336 C896.46 1336 454.92 1336 0 1336 C0 895.12 0 454.24 0 0 Z " fill="#B492CA" transform="translate(0,0)"/>
<path d="M0 0 C221.1 0 442.2 0 670 0 C670 220.44 670 440.88 670 668 C448.9 668 227.8 668 0 668 C0 447.56 0 227.12 0 0 Z " fill="#91C0E5" transform="translate(0,668)"/>
<path d="M0 0 C221.1 0 442.2 0 670 0 C670 220.44 670 440.88 670 668 C448.9 668 227.8 668 0 668 C0 447.56 0 227.12 0 0 Z " fill="#F3DC7F" transform="translate(0,0)"/>
<path d="M0 0 C220.44 0 440.88 0 668 0 C668 220.44 668 440.88 668 668 C447.56 668 227.12 668 0 668 C0 447.56 0 227.12 0 0 Z " fill="#98DDAE" transform="translate(670,0)"/>
</svg>
